<svg width="18" height="18" viewBox="0 0 18 18" fill="none" xmlns="http://www.w3.org/2000/svg">
<path d="M17.543 10.1709C17.7466 9.85883 18 9.47058 18 9.00035C18 8.52956 17.7466 8.14131 17.543 7.82899C17.4288 7.65462 17.3107 7.47393 17.2869 7.35215C17.2606 7.21898 17.3015 7.00004 17.3412 6.78827C17.412 6.40873 17.4928 5.9783 17.3174 5.55503C17.1391 5.12516 16.774 4.87584 16.452 4.65605C16.2775 4.53681 16.0968 4.4132 16.0252 4.30647C15.9518 4.19693 15.9062 3.9808 15.8618 3.7717C15.7818 3.39245 15.6908 2.96257 15.3647 2.63605C15.0384 2.30982 14.6081 2.21884 14.2289 2.13868C14.02 2.09453 13.804 2.04883 13.6945 1.97584C13.5875 1.90385 13.4643 1.72315 13.3452 1.54878C13.1254 1.22662 12.876 0.861576 12.4459 0.683411C12.2752 0.612539 12.0898 0.577946 11.8789 0.577946C11.6468 0.577946 11.4261 0.619429 11.2127 0.659224C11.0409 0.691426 10.8786 0.721519 10.7487 0.721519C10.7101 0.721519 10.6765 0.718706 10.649 0.713503C10.5272 0.689036 10.3465 0.571196 10.1715 0.457295C9.8595 0.253818 9.47123 0 9.00056 0C8.52989 0 8.14163 0.253818 7.82958 0.457295C7.65478 0.571337 7.47408 0.689036 7.35244 0.713503C7.32487 0.718706 7.29098 0.721519 7.25245 0.721519C7.12252 0.721519 6.96023 0.691285 6.78839 0.659224C6.57464 0.619429 6.35428 0.577946 6.12225 0.577946C5.91131 0.577946 5.72569 0.61282 5.55553 0.683411C5.12536 0.861716 4.87617 1.22662 4.65609 1.5485C4.5367 1.72315 4.41323 1.90385 4.30664 1.97556C4.19723 2.04883 3.98123 2.09453 3.77227 2.13868C3.39272 2.21884 2.96269 2.30982 2.63644 2.63605C2.31033 2.96229 2.21906 3.39245 2.13905 3.7717C2.09489 3.98066 2.04905 4.19651 1.97564 4.30619C1.90406 4.41306 1.72364 4.53667 1.54884 4.65577C1.22667 4.8757 0.861469 5.1253 0.683438 5.55489C0.507797 5.97816 0.588234 6.40845 0.659109 6.78813C0.698766 7.00018 0.739547 7.21898 0.713391 7.35201C0.689344 7.47393 0.5715 7.65462 0.457312 7.82941C0.253688 8.14131 0 8.52956 0 9.00035C0 9.47058 0.253688 9.85883 0.457312 10.1709C0.5715 10.3458 0.689344 10.5265 0.713391 10.6484C0.739828 10.7813 0.698766 11.0005 0.659391 11.2123C0.588516 11.5921 0.508078 12.0223 0.683438 12.4452C0.86175 12.8754 1.22681 13.1244 1.54884 13.3445C1.72336 13.4638 1.90406 13.5871 1.97564 13.6941C2.04905 13.8036 2.09461 14.0195 2.13905 14.2283C2.21906 14.6078 2.31005 15.038 2.63616 15.3642C2.96241 15.6902 3.39272 15.7814 3.77227 15.8616C3.98109 15.9058 4.19695 15.9512 4.30608 16.0244C4.41337 16.0962 4.53656 16.2768 4.65609 16.4518C4.87575 16.7737 5.1248 17.1387 5.55469 17.3172C5.72541 17.3877 5.91103 17.4221 6.12169 17.4221C6.35372 17.4221 6.5745 17.3809 6.78783 17.3411C6.95995 17.3089 7.12223 17.2785 7.25217 17.2785C7.2907 17.2785 7.32459 17.2813 7.35216 17.2871C7.47366 17.311 7.65436 17.4288 7.8293 17.543C8.14134 17.7467 8.52961 18 9.00028 18C9.47095 18 9.85922 17.7467 10.1713 17.543C10.3461 17.4288 10.5268 17.311 10.6487 17.2871C10.6762 17.2813 10.7099 17.2785 10.7484 17.2785C10.8783 17.2785 11.0406 17.309 11.2125 17.3411C11.4259 17.3811 11.6466 17.4221 11.8786 17.4221C12.0895 17.4221 12.2749 17.3877 12.4456 17.3172C12.8755 17.1386 13.1247 16.7739 13.3445 16.4518C13.4639 16.2768 13.5873 16.0959 13.6939 16.0244C13.8033 15.9512 14.0193 15.9058 14.228 15.8616C14.6076 15.7814 15.0382 15.6902 15.3644 15.3639C15.6902 15.0377 15.7815 14.6078 15.8612 14.228C15.9057 14.0196 15.9512 13.8032 16.0246 13.6938C16.0962 13.5867 16.2769 13.4633 16.4517 13.3439C16.7735 13.1243 17.1387 12.8751 17.3168 12.4455C17.4922 12.0223 17.4118 11.592 17.3409 11.2123C17.3012 11.0005 17.2605 10.7814 17.2866 10.6481C17.3107 10.5265 17.4288 10.3458 17.543 10.1709ZM4.15336 6.3508C4.15336 5.13472 5.14308 4.14504 6.35948 4.14504C7.57561 4.14504 8.56547 5.13458 8.56547 6.3508C8.56547 7.56716 7.57575 8.55698 6.35948 8.55698C5.14308 8.55712 4.15336 7.5673 4.15336 6.3508ZM5.68884 13.1322C5.57747 13.2437 5.4308 13.2997 5.28441 13.2997C5.13802 13.2997 4.99162 13.2437 4.87997 13.1322C4.65652 12.9089 4.65652 12.5466 4.87997 12.323L12.3345 4.86881C12.5578 4.64522 12.9201 4.64522 13.1435 4.86881C13.367 5.09211 13.367 5.45435 13.1435 5.67765L5.68884 13.1322ZM11.652 13.8486C10.4356 13.8486 9.44592 12.8591 9.44592 11.6429C9.44592 10.4265 10.4356 9.43669 11.652 9.43669C12.8682 9.43669 13.858 10.4265 13.858 11.6429C13.858 12.8591 12.8683 13.8486 11.652 13.8486Z" fill="white"/>
<path d="M11.6522 10.5841C11.0668 10.5841 10.5902 11.0607 10.5902 11.6462C10.5902 12.2317 11.0668 12.708 11.6522 12.708C12.2378 12.708 12.7141 12.2317 12.7141 11.6462C12.7141 11.0607 12.2378 10.5841 11.6522 10.5841Z" fill="white"/>
<path d="M6.35961 5.29242C5.77419 5.29242 5.29761 5.7687 5.29761 6.35396C5.29761 6.93964 5.77419 7.41605 6.35961 7.41605C6.94503 7.41605 7.42147 6.9395 7.42147 6.35396C7.42147 5.7687 6.94503 5.29242 6.35961 5.29242Z" fill="white"/>
</svg>
