<svg width="24" height="24" viewBox="0 0 24 24" fill="none" xmlns="http://www.w3.org/2000/svg">
<path d="M21.1767 6.54825C21.1695 6.45056 21.0891 6.375 20.9928 6.375H17.6732V5.4375C17.6732 2.43919 15.2739 0 12.325 0C9.37613 0 6.97681 2.43919 6.97681 5.4375V6.375H3.65723C3.56096 6.375 3.48055 6.45056 3.47336 6.54825L2.18241 23.7983C2.17854 23.8502 2.19606 23.9016 2.2311 23.9398C2.26596 23.9783 2.31501 24 2.36628 24H22.2838C22.335 24 22.3841 23.9783 22.4189 23.94C22.4538 23.9018 22.4715 23.8504 22.4676 23.7984L21.1767 6.54825ZM8.45218 5.4375C8.45218 3.26644 10.1894 1.5 12.325 1.5C14.4606 1.5 16.1979 3.26644 16.1979 5.4375V6.375H8.45218V5.4375ZM7.71449 11.625C6.69741 11.625 5.87028 10.7839 5.87028 9.75C5.87028 9.00169 6.23912 8.32744 6.97681 8.03156V9.75C6.97681 10.1636 7.30784 10.5 7.71449 10.5C8.12114 10.5 8.45218 10.1636 8.45218 9.75V8.03269C9.18986 8.32856 9.5587 9.00788 9.5587 9.75C9.5587 10.7839 8.73158 11.625 7.71449 11.625ZM16.9355 11.625C15.9185 11.625 15.0913 10.7839 15.0913 9.75C15.0913 9.00169 15.4602 8.32744 16.1979 8.03156V9.75C16.1979 10.1636 16.5289 10.5 16.9355 10.5C17.3422 10.5 17.6732 10.1636 17.6732 9.75V8.03269C18.4109 8.32856 18.7798 9.00788 18.7798 9.75C18.7798 10.7839 17.9526 11.625 16.9355 11.625Z" fill="white"/>
</svg>
