<svg width="18" height="18" viewBox="0 0 18 18" fill="none" xmlns="http://www.w3.org/2000/svg">
<path d="M12.0776 0H5.26778C4.16954 0 3.27271 0.87067 3.27271 1.93687V16.0631C3.27271 17.1293 4.16954 18 5.26778 18H12.0776C13.1759 18 14.0727 17.1293 14.0727 16.0631V12.1267V3.59336V1.93687C14.0727 0.874359 13.1759 0 12.0776 0ZM9.52774 17.1884H7.60867C7.32366 17.1884 7.09185 16.9633 7.09185 16.6866C7.09185 16.4099 7.32366 16.1849 7.60867 16.1849H9.52774C9.81275 16.1849 10.0446 16.4099 10.0446 16.6866C10.0446 16.9633 9.81275 17.1884 9.52774 17.1884ZM13.0125 3.22074V3.59336V12.1119V13.1006V14.8715C13.0125 15.1445 12.7807 15.3695 12.4994 15.3695H4.84216C4.56095 15.3695 4.32914 15.1445 4.32914 14.8715V3.13589C4.32914 2.86288 4.56095 2.63784 4.84216 2.63784H12.4994C12.7807 2.63784 13.0125 2.86288 13.0125 3.13589V3.22074Z" fill="white"/>
</svg>
